<?xml version="1.0" encoding="UTF-8"?>
<svg version="1.1" xmlns="http://www.w3.org/2000/svg" width="1024" height="1024">
    <path d="M0 0 C1.28398178 0.00190338 1.28398178 0.00190338 2.59390259 0.00384521 C93.82302186 0.26021689 178.65689943 32.55016076 251.359375 95.58203125 C252.62897521 96.69700067 253.91124914 97.79763736 255.203125 98.88671875 C259.30126296 102.36700767 262.87563248 105.9957869 266.34765625 110.09765625 C268.32511436 112.34381356 270.41711266 114.41410347 272.5625 116.5 C276.60661538 120.50319685 280.22748541 124.71639063 283.7734375 129.1640625 C285.42195693 131.22871304 287.08298741 133.25853645 288.7890625 135.2734375 C339.72301085 196.13283809 366.3354566 274.34634677 370.8125 352.875 C370.85262207 353.54926025 370.89274414 354.22352051 370.93408203 354.91821289 C371.6645128 369.48436141 371.17806461 383.97663718 370 398.5 C369.93470093 399.31732605 369.86940186 400.1346521 369.80212402 400.97674561 C366.35446781 443.2796717 355.83363965 484.56283596 338.1875 523.1875 C337.83220215 523.98027344 337.4769043 524.77304687 337.11083984 525.58984375 C318.38663659 567.30192342 290.62862718 603.74092177 258.5 636 C257.60861328 636.89614014 256.71722656 637.79228027 255.79882812 638.71557617 C250.75597516 643.7457563 245.62915677 648.59167448 240.1875 653.1875 C239.59428955 653.69273193 239.0010791 654.19796387 238.38989258 654.71850586 C182.32190571 702.08376941 113.00827316 731.31450582 40.1875 739.1875 C38.86153809 739.33239868 38.86153809 739.33239868 37.50878906 739.48022461 C-28.06885685 746.05146238 -94.47475128 733.56826707 -153.8125 705.1875 C-154.69244629 704.77290527 -155.57239258 704.35831055 -156.47900391 703.93115234 C-181.27036295 692.19815687 -204.39053154 677.29052321 -225.8125 660.1875 C-226.7303125 659.46304688 -227.648125 658.73859375 -228.59375 657.9921875 C-234.92224299 652.91848191 -240.88062401 647.51282482 -246.80078125 641.9765625 C-249.20928553 639.72962715 -251.67393449 637.56698103 -254.1875 635.4375 C-257.44124069 632.62528989 -260.19730859 629.55615584 -262.97265625 626.27734375 C-264.95011436 624.03118644 -267.04211266 621.96089653 -269.1875 619.875 C-274.14448182 614.95967349 -278.4976946 609.66505138 -282.8125 604.1875 C-283.35100586 603.50945313 -283.88951172 602.83140625 -284.44433594 602.1328125 C-291.64304233 593.05981605 -298.62448879 583.98728918 -304.8125 574.1875 C-305.59615894 572.96862446 -306.38002529 571.74988225 -307.1640625 570.53125 C-339.07411735 520.58480584 -360.66838613 463.56168292 -365.5 404.25 C-365.56287201 403.49504242 -365.62574402 402.74008484 -365.69052124 401.96224976 C-373.59503469 305.62465063 -345.25469985 206.69239755 -282.8125 132.1875 C-282.39742188 131.68895508 -281.98234375 131.19041016 -281.5546875 130.67675781 C-270.48538499 117.41731474 -258.96778716 104.41762318 -245.8125 93.1875 C-244.76992297 92.27186888 -243.72831838 91.35512973 -242.6875 90.4375 C-218.54677736 69.27944188 -191.75584101 51.05328019 -162.79980469 37.14648438 C-160.84061138 36.2010653 -158.89277646 35.23493316 -156.9453125 34.265625 C-108.27204737 10.34056121 -54.00327845 -0.08296749 0 0 Z M-9.09326172 24.328125 C-85.82549394 27.90794551 -159.68167278 53.31912404 -218.8125 103.1875 C-220.27236328 104.36892578 -220.27236328 104.36892578 -221.76171875 105.57421875 C-230.00233593 112.32809389 -237.58010963 119.74001097 -245.125 127.25 C-245.89268204 128.00991745 -245.89268204 128.00991745 -246.6758728 128.78518677 C-253.52621401 135.58086479 -259.81882784 142.60923205 -265.8125 150.1875 C-266.71751365 151.28725011 -267.62461131 152.38529391 -268.53515625 153.48046875 C-288.54640785 178.23562307 -304.28868383 205.9984634 -316.8125 235.1875 C-317.14975098 235.96867188 -317.48700195 236.74984375 -317.83447266 237.5546875 C-353.21264951 320.61488757 -349.92253844 416.03039635 -317.8125 499.1875 C-315.07429543 505.97819861 -312.10149971 512.64463947 -308.8125 519.1875 C-302.26990271 518.65057474 -295.97298373 517.70548292 -289.5625 516.3125 C-278.70596178 514.06194157 -267.82112141 512.48091577 -256.8125 511.1875 C-255.94947266 511.08163574 -255.08644531 510.97577148 -254.19726562 510.86669922 C-201.87049423 504.63685153 -147.66035196 511.57154935 -97.8125 528.1875 C-95.25594013 527.66240985 -95.25594013 527.66240985 -92.421875 526.7109375 C-91.33116699 526.37215576 -90.24045898 526.03337402 -89.11669922 525.68432617 C-87.94381348 525.31412354 -86.77092773 524.9439209 -85.5625 524.5625 C-73.08681944 520.74489181 -60.61480592 517.67486122 -47.8125 515.1875 C-46.64968506 514.95788574 -46.64968506 514.95788574 -45.46337891 514.72363281 C-36.55238278 512.98328027 -27.64649601 511.72333576 -18.61010742 510.83325195 C-15.5157772 510.52441218 -12.77443016 510.17481005 -9.8125 509.1875 C-9.74232105 499.99766444 -9.68935003 490.80792416 -9.65706348 481.61787701 C-9.64155074 477.34842506 -9.62058351 473.0791593 -9.58618164 468.80981445 C-9.09506887 437.22236497 -9.09506887 437.22236497 -16 406.5625 C-16.29463135 405.70567627 -16.5892627 404.84885254 -16.89282227 403.96606445 C-19.91864069 395.41937139 -23.73201275 387.27428382 -27.8125 379.1875 C-28.41191406 379.21070313 -29.01132812 379.23390625 -29.62890625 379.2578125 C-72.93871354 380.12031222 -117.64755506 366.58327104 -150.8125 338.1875 C-152.05966797 337.12402344 -152.05966797 337.12402344 -153.33203125 336.0390625 C-189.96747087 303.96194947 -205.86565298 255.87369175 -209.25 208.4765625 C-209.78469018 199.70809931 -209.94410649 190.96535785 -209.5625 182.1875 C-209.53639648 181.46393311 -209.51029297 180.74036621 -209.48339844 179.99487305 C-209.20688298 175.40787359 -208.47031713 171.96555411 -205.8125 168.1875 C-200.09612715 164.64599394 -195.000806 164.88348171 -188.4375 165.3125 C-187.43654297 165.36889648 -186.43558594 165.42529297 -185.40429688 165.48339844 C-160.42484819 167.04170669 -135.44173991 170.67316231 -111.8125 179.1875 C-110.65935303 179.60273926 -110.65935303 179.60273926 -109.48291016 180.02636719 C-87.57416245 188.06029846 -68.75892027 199.02488545 -51.8125 215.1875 C-51.27189941 215.70256104 -50.73129883 216.21762207 -50.17431641 216.74829102 C-45.96395963 220.84602508 -42.30120522 225.15230114 -38.8125 229.875 C-38.29268555 230.57778076 -37.77287109 231.28056152 -37.23730469 232.00463867 C-18.12153345 258.18298977 -9.43064605 290.33829331 -5.8125 322.1875 C-4.30659888 319.38124747 -3.32756012 316.7374659 -2.55078125 313.65234375 C-2.32277832 312.7701416 -2.09477539 311.88793945 -1.85986328 310.97900391 C-1.49610596 309.56627197 -1.49610596 309.56627197 -1.125 308.125 C3.26943312 291.63160816 9.06447241 276.20493169 17.1875 261.1875 C17.74050781 260.15367187 18.29351563 259.11984375 18.86328125 258.0546875 C26.62049139 244.16946649 36.51392709 231.52093279 47.9765625 220.5078125 C50.41744592 218.48034715 50.41744592 218.48034715 50.1875 216.1875 C50.76757812 215.9296875 51.34765625 215.671875 51.9453125 215.40625 C54.37843974 214.08371394 56.05600466 212.59249947 58.0625 210.6875 C94.67352093 177.65410326 155.76986495 154.68777527 205.1875 157.1875 C208.7261994 158.83889305 209.99820153 159.90355229 212.1875 163.1875 C221.37577066 215.89915798 206.92542564 278.23482366 176.75292969 322.28173828 C170.90122695 330.57647863 164.55343514 338.2816724 157.5625 345.63671875 C155.16701087 348.14317866 155.16701087 348.14317866 153.09375 350.8203125 C150.18843025 354.42814809 146.71442721 357.20452674 143.1875 360.1875 C141.97513672 361.26644531 141.97513672 361.26644531 140.73828125 362.3671875 C105.24972259 393.24881486 61.09563703 409.74403646 15.1875 417.1875 C13.12756617 427.70767301 12.92356697 437.84349519 12.9921875 448.51953125 C12.99592703 450.24972875 12.99876955 451.97992839 13.00076294 453.71012878 C13.00832549 458.21947282 13.02790873 462.72868386 13.0501709 467.23797607 C13.07079016 471.85720013 13.07979872 476.47644611 13.08984375 481.09570312 C13.11116311 490.12635987 13.14520759 499.15691879 13.1875 508.1875 C14.07832275 508.18389969 14.96914551 508.18029938 15.88696289 508.17658997 C19.26977865 508.16470196 22.65257145 508.15617116 26.03540039 508.1497345 C27.48494828 508.14632875 28.93449391 508.14167789 30.3840332 508.13563538 C68.7298374 507.98007599 109.35376757 511.92616147 145.546875 525.55859375 C151.15435547 527.46607169 154.68702745 527.15143524 160.1875 525.1875 C160.98607422 524.93790527 161.78464844 524.68831055 162.60742188 524.43115234 C165.22815726 523.6092679 167.83179273 522.74325553 170.4375 521.875 C213.472581 507.94162975 256.29916156 506.67765285 300.68359375 514.28515625 C305.5077372 515.10584024 310.31890824 515.6991304 315.1875 516.1875 C335.64823802 470.34530577 346.35589679 423.32265885 347.1875 373.1875 C347.22690161 371.80596178 347.2671665 370.42444771 347.30859375 369.04296875 C348.14941947 321.80834731 337.50854408 273.1787173 318.1875 230.1875 C317.74567383 229.20362305 317.30384766 228.21974609 316.84863281 227.20605469 C311.42277249 215.26312065 305.52104268 203.66024985 298.9375 192.3125 C298.38360596 191.35682129 297.82971191 190.40114258 297.2590332 189.41650391 C293.28279454 182.70685862 288.83985469 176.44145535 284.1875 170.1875 C282.91414812 168.41847681 281.64300539 166.64785938 280.375 164.875 C272.72756691 154.39518429 264.74099368 144.44841846 255.81640625 135.02734375 C253.1875 132.1875 253.1875 132.1875 250.96484375 129.31640625 C250.08505859 128.26259766 250.08505859 128.26259766 249.1875 127.1875 C248.5275 127.1875 247.8675 127.1875 247.1875 127.1875 C247.1875 126.5275 247.1875 125.8675 247.1875 125.1875 C245.70388306 123.68700064 245.70388306 123.68700064 243.75 122.125 C240.63054054 119.48166856 237.72205407 116.74691855 234.875 113.8125 C175.44805758 53.98402418 85.38072961 25.20225607 2.75 23.9375 C-1.20345328 24.00120116 -5.14319679 24.15881131 -9.09326172 24.328125 Z " fill="#3D3228" transform="translate(509.8125,135.8125)"/>
    <path d="M0 0 C3.89815097 0.00316705 7.79554514 -0.02042969 11.69360352 -0.0456543 C26.24768816 -0.08203001 40.32815245 0.67599963 54.70632935 2.95974731 C57.58953882 3.41328807 60.48124505 3.7895445 63.37524414 4.16723633 C104.03221817 10.10273002 144.37343205 26.37658931 178.96899414 48.31567383 C179.58323242 48.70400391 180.1974707 49.09233398 180.83032227 49.49243164 C195.16355963 58.63500033 209.72231592 68.47354053 221.96899414 80.31567383 C221.39567068 83.95748906 220.03770386 85.59994688 217.40649414 88.12817383 C216.68075195 88.8268457 215.95500977 89.52551758 215.20727539 90.24536133 C212.54111278 92.71144542 209.83387256 95.11796813 207.07836914 97.48364258 C204.79269868 99.4687897 202.57198036 101.51607213 200.34399414 103.56567383 C183.758412 118.48512443 165.20829004 131.09543902 145.96899414 142.31567383 C145.19749023 142.76797363 144.42598633 143.22027344 143.63110352 143.6862793 C110.73780117 162.81518778 110.73780117 162.81518778 95.96899414 165.31567383 C95.1349707 164.34887695 94.30094727 163.38208008 93.44165039 162.38598633 C87.75323809 155.80123357 82.0589536 149.22722235 76.20532227 142.78808594 C74.80384626 141.23865935 73.4097925 139.6824509 72.02685547 138.11645508 C66.25532026 131.60178891 60.21194415 125.40430211 54.04833984 119.26464844 C52.4015801 117.62327587 50.76027319 115.97658563 49.11938477 114.3293457 C44.09441689 109.30125485 39.03973572 104.35537945 33.63037109 99.73632812 C31.30457833 97.74752752 29.08184394 95.6524148 26.84399414 93.56567383 C21.56143811 88.74406105 16.02089976 84.33992033 10.36743164 79.96411133 C7.39317006 77.66001242 4.48661972 75.28435186 1.59399414 72.87817383 C-27.6845662 48.86890446 -60.03942065 28.89467588 -94.03100586 12.31567383 C-91.27126427 10.4758461 -89.79058623 9.86044151 -86.66381836 9.13208008 C-85.78918945 8.9281665 -84.91456055 8.72425293 -84.01342773 8.51416016 C-83.07047852 8.30428467 -82.1275293 8.09440918 -81.15600586 7.87817383 C-80.17438477 7.65863037 -79.19276367 7.43908691 -78.18139648 7.21289062 C-52.40001031 1.60779265 -26.32774348 -0.04458691 0 0 Z " fill="#6A5D52" transform="translate(537.031005859375,665.684326171875)"/>
    <path d="M0 0 C0.94165009 -0.00067474 1.88330017 -0.00134949 2.85348511 -0.00204468 C86.41169878 0.09248119 163.42863269 33.88042061 228.25 85.25 C229.09304688 85.91128906 229.93609375 86.57257813 230.8046875 87.25390625 C240.3910904 94.83420886 249.70877807 102.74920872 258.73828125 110.984375 C260.10482859 112.21703046 261.47763739 113.44340826 262.88012695 114.63500977 C268.92969618 119.80046564 274.54014793 125.38822224 280.15014648 131.01977539 C281.8092732 132.68426277 283.47368051 134.34333447 285.13867188 136.00195312 C290.7194914 141.57886414 296.1529835 147.22251702 301.25 153.25 C302.31629931 154.47388528 303.383998 155.69655283 304.453125 156.91796875 C305.46914787 158.09080128 306.48477678 159.26397522 307.5 160.4375 C308.015625 161.02724609 308.53125 161.61699219 309.0625 162.22460938 C311.81731601 165.41607792 314.2075373 168.53579558 316.25 172.25 C309.27065491 174.70042837 302.26790009 176.58593158 295.0625 178.25 C293.93134766 178.51127686 292.80019531 178.77255371 291.63476562 179.04174805 C278.3954934 182.00984174 265.0708154 183.71663736 251.57617188 184.98999023 C249.5334764 185.21831419 247.50562336 185.57209444 245.484375 185.9453125 C241.49494128 186.43728303 238.01631991 186.73929956 234.25 185.25 C229.16619369 181.26681155 225.55243921 175.70448415 221.84960938 170.48046875 C219.64294384 167.40353097 217.27535618 164.49892092 214.8125 161.625 C214.35407715 161.08705811 213.8956543 160.54911621 213.42333984 159.99487305 C208.10935654 153.89264602 202.39078467 148.17222379 196.6875 142.4375 C196.20435333 141.9490863 195.72120667 141.46067261 195.22341919 140.9574585 C188.57835199 134.25640582 181.62223819 128.14115222 174.25 122.25 C173.10185421 121.27944456 171.95881933 120.30276224 170.82421875 119.31640625 C163.28979979 112.78113893 155.50208018 106.84869748 147.25 101.25 C146.5192627 100.75242187 145.78852539 100.25484375 145.03564453 99.7421875 C128.31786121 88.43217704 110.94178578 78.72702449 92.625 70.25 C91.18688965 69.58266846 91.18688965 69.58266846 89.71972656 68.90185547 C83.91649319 66.27543538 78.07536759 64.10021193 72.01147461 62.15258789 C69.69455291 61.39530211 67.43564728 60.57414889 65.16796875 59.68359375 C38.99640964 49.70673943 9.75901108 46.11064991 -18.0625 46 C-18.72604492 45.99630402 -19.38958984 45.99260803 -20.07324219 45.98880005 C-28.05741038 45.96437211 -35.75626899 46.41050862 -43.6574707 47.53369141 C-55.18887737 49.10283551 -55.18887737 49.10283551 -59.703125 46.63671875 C-61.72231938 44.30157129 -63.21730357 42.00815077 -64.63916016 39.27392578 C-65.96359603 36.86083274 -67.46786961 34.61869268 -69.01171875 32.33984375 C-74.06799756 24.84653592 -78.857903 17.42057651 -82.75 9.25 C-72.33425347 6.41619342 -61.87847184 4.5472228 -51.1875 3.0625 C-50.00647705 2.89588867 -48.8254541 2.72927734 -47.60864258 2.55761719 C-31.75935281 0.4343508 -15.96700278 0.01039255 0 0 Z " fill="#6A5D52" transform="translate(293.75,666.75)"/>
    <path d="M0 0 C0.98262901 37.28447188 -4.94759546 74.53063018 -22 108 C-22.33757324 108.6801416 -22.67514648 109.3602832 -23.02294922 110.06103516 C-29.76223168 123.61670857 -37.57531224 135.68337026 -47.9296875 146.77734375 C-49.79625956 148.78126734 -51.55616074 150.83752915 -53.3125 152.9375 C-67.04551615 168.54320017 -84.59622993 180.56408098 -103 190 C-103.77649902 190.4031543 -104.55299805 190.80630859 -105.35302734 191.22167969 C-124.09608099 200.85800168 -149.46653761 213 -171 213 C-169.46635842 207.69124069 -167.07177057 203.15835253 -164.375 198.375 C-163.92624512 197.57594238 -163.47749023 196.77688477 -163.01513672 195.95361328 C-148.21301822 169.86717993 -128.31886453 147.29027903 -107.25 126.125 C-106.55310059 125.42342773 -105.85620117 124.72185547 -105.13818359 123.99902344 C-101.14490017 120.01804451 -97.04758774 116.21876641 -92.77734375 112.53662109 C-90.59971941 110.65393324 -88.48952616 108.70305325 -86.375 106.75 C-81.19657091 102.06780368 -75.73319692 97.80637539 -70.2265625 93.5234375 C-63.78194544 88.97204917 -63.78194544 88.97204917 -59 83 C-58.41507262 78.20359551 -57.99685075 74.31663339 -61 70.375 C-64.73993386 68.66086365 -67.97900485 68.39915085 -72 69 C-74.54794843 70.3547915 -76.46600221 71.55878868 -78.6875 73.3125 C-79.28344971 73.76036865 -79.87939941 74.2082373 -80.4934082 74.66967773 C-86.23277466 79.0383814 -91.71959968 83.7108439 -97.15820312 88.4453125 C-98.52118476 89.5958251 -99.90947177 90.71650693 -101.31054688 91.8203125 C-109.12030245 98.00568516 -116.13746863 104.83131956 -123.15283203 111.89208984 C-125.1218315 113.87181424 -127.10130727 115.84060754 -129.08203125 117.80859375 C-136.18461699 124.90377952 -142.77997718 132.11180394 -149 140 C-149.94580049 141.11415177 -150.89893885 142.22217022 -151.86328125 143.3203125 C-162.58638977 155.59972545 -171.70926697 168.97890738 -180 183 C-181.50472582 178.48582253 -180.50302338 174.4101321 -179.875 169.75 C-179.73739258 168.72656494 -179.59978516 167.70312988 -179.45800781 166.64868164 C-173.97544756 127.78018368 -161.61768889 91.4563605 -135 62 C-134.27941406 61.15953125 -133.55882812 60.3190625 -132.81640625 59.453125 C-128.55176708 54.49849548 -124.07162412 50.12123459 -119 46 C-118.08863281 45.25105469 -117.17726563 44.50210938 -116.23828125 43.73046875 C-85.0970748 18.91909348 -40.51560846 -0.9971458 0 0 Z " fill="#5CA020" transform="translate(702,317)"/>
    <path d="M0 0 C42.61994338 -1.00275321 89.78184916 13.24432109 121 43 C121 43.66 121 44.32 121 45 C122.485 45.495 122.485 45.495 124 46 C147.91829214 72.10715415 163.29858518 113.50533844 162 149 C158.76472684 145.92685898 156.11367374 142.62926204 153.4375 139.0625 C140.90139446 122.58574447 126.96638391 106.08869778 111.1875 92.625 C108.19769527 90.05251027 105.27790107 87.42009885 102.375 84.75 C96.69244631 79.62695929 90.73351481 74.9016685 84.65136719 70.26611328 C83.14269845 69.10940777 81.65233737 67.92892378 80.1640625 66.74609375 C74.94428901 62.76517715 74.94428901 62.76517715 68.6875 61.25 C64.94357617 61.77837713 64.94357617 61.77837713 62 63.9375 C59.68583767 67.48106107 59.40866412 69.58787801 59.3359375 73.71875 C60.91378458 79.13911879 67.20675482 82.97988421 71.4375 86.5625 C72.04150635 87.07772217 72.6455127 87.59294434 73.26782227 88.1237793 C75.80877233 90.29089598 78.35404341 92.45286018 80.90234375 94.61132812 C93.36007604 105.16543605 93.36007604 105.16543605 98.43359375 110.4296875 C100.19480859 112.19529439 102.04622906 113.81224597 103.9375 115.4375 C110.87570077 121.43810607 117.05213705 128.0311466 123 135 C123.80050781 135.91136719 124.60101563 136.82273437 125.42578125 137.76171875 C130.99135828 144.14947165 136.15287094 150.76409424 141.125 157.625 C141.6936377 158.4072998 142.26227539 159.18959961 142.84814453 159.99560547 C146.87213065 165.61639195 146.87213065 165.61639195 148 169 C114.51478994 170.64681361 77.1600134 155.62956747 52 134 C51.05769531 133.19046875 50.11539063 132.3809375 49.14453125 131.546875 C38.06643643 121.81635534 29.21904931 110.89220119 22 98 C21.66758301 97.40767578 21.33516602 96.81535156 20.99267578 96.20507812 C14.79874012 84.99728646 10.66237711 73.24487028 7 61 C6.74001221 60.14994385 6.48002441 59.2998877 6.2121582 58.42407227 C4.01839735 50.89559387 2.83236757 43.3288015 1.8125 35.5625 C1.6381543 34.25458496 1.46380859 32.94666992 1.28417969 31.59912109 C-0.06904267 21.02406491 -0.45075814 10.64290059 0 0 Z " fill="#5CA020" transform="translate(322,324)"/>
    <path d="M0 0 C2.34632897 0.63994687 4.69785614 1.24650681 7.05566406 1.84228516 C49.05542451 12.86785709 88.41355082 37.06647793 120.67285156 65.72900391 C121.39448486 66.36451172 122.11611816 67.00001953 122.85961914 67.65478516 C129.01664537 73.126069 134.93762788 78.80751152 140.75952148 84.63037109 C142.23241128 86.101068 143.71315422 87.56353925 145.19433594 89.02587891 C160.35967397 104.10264871 160.35967397 104.10264871 163.67285156 110.72900391 C154.78825563 110.95591893 146.1083081 110.113908 137.29785156 109.10400391 C136.53262177 109.01697205 135.76739197 108.92994019 134.97897339 108.840271 C67.49190558 101.03581691 -2.75218125 71.56849484 -52.48339844 24.39697266 C-54.6259828 22.38682826 -56.7877754 20.46131499 -59.01464844 18.54931641 C-64.17118831 14.06051674 -68.99295913 9.24717999 -73.82714844 4.41650391 C-74.74496094 3.5109375 -75.66277344 2.60537109 -76.60839844 1.67236328 C-77.47464844 0.80804687 -78.34089844 -0.05626953 -79.23339844 -0.94677734 C-80.02037109 -1.72964111 -80.80734375 -2.51250488 -81.61816406 -3.3190918 C-83.32714844 -5.27099609 -83.32714844 -5.27099609 -83.32714844 -7.27099609 C-58.60901297 -14.54253602 -24.20196651 -6.60313175 0 0 Z " fill="#6A5D52" transform="translate(337.3271484375,742.27099609375)"/>
    <path d="M0 0 C0.78414276 -0.00167175 1.56828552 -0.00334351 2.37619019 -0.00506592 C20.48665413 -0.00736417 38.07593025 1.87188444 55.875 5.25 C55.875 19.71480301 35.48900132 41.20230314 26.875 52.25 C26.14023437 53.20132813 25.40546875 54.15265625 24.6484375 55.1328125 C19.28802187 61.97465209 19.28802187 61.97465209 15.875 64.25 C15.05 63.52296875 14.225 62.7959375 13.375 62.046875 C-9.86392991 41.73670564 -36.4078396 22.93221899 -65.125 11.25 C-65.125 10.59 -65.125 9.93 -65.125 9.25 C-56.83813874 6.59141652 -48.55165434 4.63169131 -40 3.0625 C-39.10716309 2.89588867 -38.21432617 2.72927734 -37.29443359 2.55761719 C-24.91388353 0.35833655 -12.54243526 0.0142049 0 0 Z " fill="#6B5D52" transform="translate(758.125,666.75)"/>
    <path d="M0 0 C0.33 0 0.66 0 1 0 C1 337.92 1 675.84 1 1024 C0.67 1024 0.34 1024 0 1024 C0 686.08 0 348.16 0 0 Z " fill="#9E9F84" transform="translate(0,0)"/>
    <path d="M0 0 C0.33 0 0.66 0 1 0 C1.22540764 22.3404014 0.55795132 44.6685919 0 67 C-0.33 67 -0.66 67 -1 67 C-1.97818423 56.75551821 -2.19713779 46.59548272 -2.1875 36.3125 C-2.1882251 35.52161987 -2.1889502 34.73073975 -2.18969727 33.91589355 C-2.18854083 22.50478232 -1.847851 11.28509003 0 0 Z " fill="#32271C" transform="translate(167,466)"/>
    <path d="M0 0 C0.33 0 0.66 0 1 0 C1.79279795 7.43676985 2.16070035 14.77268915 2.125 22.25 C2.12306641 23.24201416 2.12113281 24.23402832 2.11914062 25.25610352 C2.07277781 33.20410709 1.70039946 41.08298472 1 49 C0.67 49 0.34 49 0 49 C-1.23999925 32.61293304 -0.75329592 16.40511105 0 0 Z " fill="#271A11" transform="translate(857,480)"/>
    <path d="M0 0 C0.66 0.33 1.32 0.66 2 1 C1.55197021 1.44279297 1.10394043 1.88558594 0.64233398 2.34179688 C-1.42870096 4.39176683 -3.49560697 6.44585433 -5.5625 8.5 C-6.26697266 9.19609375 -6.97144531 9.8921875 -7.69726562 10.609375 C-11.79063814 14.68388405 -15.68856547 18.85634228 -19.45727539 23.23242188 C-21.3625324 25.41537182 -23.37103122 27.46978506 -25.4375 29.5 C-26.11683594 30.1703125 -26.79617188 30.840625 -27.49609375 31.53125 C-27.99238281 32.0159375 -28.48867188 32.500625 -29 33 C-29 29.46419187 -28.55548682 29.15759815 -26.2109375 26.69921875 C-25.60515869 26.05791016 -24.99937988 25.41660156 -24.37524414 24.75585938 C-23.71516357 24.07330078 -23.05508301 23.39074219 -22.375 22.6875 C-21.70654053 21.98560547 -21.03808105 21.28371094 -20.34936523 20.56054688 C-13.68224619 13.59212007 -6.86654987 6.77132807 0 0 Z " fill="#60B01D" transform="translate(601,437)"/>
    <path d="M0 0 C2.72717258 2.72717258 2.39147678 4.47482547 2.6328125 8.29296875 C2.71660156 9.56333984 2.80039063 10.83371094 2.88671875 12.14257812 C2.9661559 13.49088482 3.0455829 14.83919212 3.125 16.1875 C3.21136719 17.50298828 3.29773438 18.81847656 3.38671875 20.17382812 C3.76548375 26.1288556 4.04468972 32.03107047 4 38 C3.67 38 3.34 38 3 38 C1.18407188 30.74394967 0.37623517 23.63841838 -0.1875 16.1875 C-0.28224609 15.06923828 -0.37699219 13.95097656 -0.47460938 12.79882812 C-0.55904297 11.72439453 -0.64347656 10.64996094 -0.73046875 9.54296875 C-0.80676514 8.57383545 -0.88306152 7.60470215 -0.96166992 6.60620117 C-0.99746299 4.17250058 -0.7220743 2.31016023 0 0 Z " fill="#32261C" transform="translate(144,518)"/>
    <path d="M0 0 C2.47055449 2.21603911 3.73111994 4.22133407 5.0078125 7.2734375 C5.35457031 8.0984375 5.70132813 8.9234375 6.05859375 9.7734375 C6.41050781 10.63195312 6.76242188 11.49046875 7.125 12.375 C7.48464844 13.22578125 7.84429687 14.0765625 8.21484375 14.953125 C9.88760953 18.97528091 11.24012359 22.69403365 12 27 C12.99 27.33 13.98 27.66 15 28 C13.68 28 12.36 28 11 28 C9.157695 23.89980233 7.32770545 19.79422392 5.5 15.6875 C4.97535156 14.52025391 4.45070312 13.35300781 3.91015625 12.15039062 C3.41386719 11.03212891 2.91757813 9.91386719 2.40625 8.76171875 C1.94541016 7.73006592 1.48457031 6.69841309 1.00976562 5.63549805 C0 3 0 3 0 0 Z " fill="#362B20" transform="translate(189,629)"/>
    <path d="M0 0 C3.70261442 3.33607059 4.93829067 7.24410569 6.6875 11.8125 C7.00783203 12.60720703 7.32816406 13.40191406 7.65820312 14.22070312 C9.37177806 18.63799971 10.41134794 22.18024394 10 27 C7.38741608 24.7281879 6.78478605 23.30927263 6 20 C4.95868333 16.85142426 3.89556498 13.7118988 2.81640625 10.57617188 C1.62890865 7.07340529 0.61864559 3.64860299 0 0 Z " fill="#352A1F" transform="translate(850,360)"/>
    <path d="M0 0 C0.87591797 0.33644531 0.87591797 0.33644531 1.76953125 0.6796875 C1.30804687 1.08058594 0.8465625 1.48148437 0.37109375 1.89453125 C-5.21622213 6.76410892 -10.7316828 11.71049773 -16.23046875 16.6796875 C-17.22046875 16.3496875 -18.21046875 16.0196875 -19.23046875 15.6796875 C-14.87009175 11.22846931 -10.47623951 6.80392295 -5.91796875 2.5546875 C-5.30308594 1.97460938 -4.68820312 1.39453125 -4.0546875 0.796875 C-2.23046875 -0.3203125 -2.23046875 -0.3203125 0 0 Z " fill="#3B262A" transform="translate(603.23046875,407.3203125)"/>
    <path d="M0 0 C6.48068408 2.74182788 10.86041464 7.82955318 15.3203125 13.0625 C17.43646445 15.50345667 19.68170406 17.75195545 22 20 C21.67 20.99 21.34 21.98 21 23 C20.5968457 22.56655273 20.19369141 22.13310547 19.77832031 21.68652344 C17.93630995 19.70697066 16.0931655 17.72847725 14.25 15.75 C13.29867187 14.72712891 13.29867187 14.72712891 12.328125 13.68359375 C6.68451397 6.67998084 6.68451397 6.67998084 -1 3 C-0.67 2.01 -0.34 1.02 0 0 Z " fill="#34291D" transform="translate(761,233)"/>
    <path d="M0 0 C0.33 0 0.66 0 1 0 C1.11858127 11.38380184 0.86612792 22.64753762 0 34 C-0.33 34 -0.66 34 -1 34 C-2.24911667 26.34916042 -2.09053426 18.72559014 -2 11 C-1.67 11 -1.34 11 -1 11 C-0.67 7.37 -0.34 3.74 0 0 Z " fill="#4C4335" transform="translate(880,498)"/>
    <path d="M0 0 C2.14830535 4.29661069 2.50209455 7.7552857 2.75 12.4375 C2.80542969 13.18837891 2.86085938 13.93925781 2.91796875 14.71289062 C3.16662093 18.99648961 3.02382377 22.0846794 1 26 C0.67 26 0.34 26 0 26 C0 17.42 0 8.84 0 0 Z " fill="#372B1E" transform="translate(722,302)"/>
    <path d="M0 0 C8.26218593 1.59445693 16.06288986 4.26018069 24 7 C24 7.33 24 7.66 24 8 C15.45988044 7.55052002 7.98466367 4.85091417 0 2 C0 1.34 0 0.68 0 0 Z " fill="#372D21" transform="translate(392,854)"/>
    <path d="M0 0 C0.99 0.33 1.98 0.66 3 1 C-0.75 4 -0.75 4 -3 4 C-3 4.66 -3 5.32 -3 6 C-5.08203125 7.9453125 -5.08203125 7.9453125 -7.8125 10.125 C-9.15248047 11.21167969 -9.15248047 11.21167969 -10.51953125 12.3203125 C-13 14 -13 14 -16 14 C-11.75287798 8.14190066 -6.28831132 3.59193015 0 0 Z " fill="#362C20" transform="translate(579,337)"/>
    <path d="M0 0 C0.33 0 0.66 0 1 0 C1.02718316 2.85423192 1.04692705 5.70820015 1.0625 8.5625 C1.07087891 9.36236328 1.07925781 10.16222656 1.08789062 10.98632812 C1.10742247 15.77163104 0.80437018 20.28145051 0 25 C-0.66 25 -1.32 25 -2 25 C-1.03644647 8.29157175 -1.03644647 8.29157175 0 0 Z " fill="#34291D" transform="translate(722,342)"/>
    <path d="M0 0 C1.4650113 4.50371428 -0.13630407 7.58005406 -1.9375 11.75 C-2.22818359 12.44738281 -2.51886719 13.14476562 -2.81835938 13.86328125 C-3.53551703 15.57975695 -4.26643402 17.29047232 -5 19 C-5.66 19 -6.32 19 -7 19 C-6.31471486 14.85713983 -5.02109557 11.15886187 -3.5 7.25 C-3.0565625 6.10015625 -2.613125 4.9503125 -2.15625 3.765625 C-1 1 -1 1 0 0 Z " fill="#382D21" transform="translate(194,365)"/>
    <path d="M0 0 C1.95086441 3.64634112 2.57168325 6.8227556 3.125 10.9375 C3.29257812 12.14277344 3.46015625 13.34804688 3.6328125 14.58984375 C3.93922155 17.43553627 4.07588456 20.14348827 4 23 C1.98202695 21.33910717 1.08463956 20.42606532 0.56762695 17.82348633 C0.54144287 17.00130615 0.51525879 16.17912598 0.48828125 15.33203125 C0.45283203 14.43935547 0.41738281 13.54667969 0.38085938 12.62695312 C0.35830078 11.69818359 0.33574219 10.76941406 0.3125 9.8125 C0.27833984 8.87212891 0.24417969 7.93175781 0.20898438 6.96289062 C0.12651782 4.64204607 0.05736597 2.32157852 0 0 Z " fill="#5EAD1E" transform="translate(480,450)"/>
    <path d="M0 0 C0.66 0.33 1.32 0.66 2 1 C1.29875 1.680625 0.5975 2.36125 -0.125 3.0625 C-3.27934337 6.20780513 -6.13934304 9.5888386 -9 13 C-9.33 12.01 -9.66 11.02 -10 10 C-8.7121669 8.51749445 -7.41960936 7.03909182 -6.125 5.5625 C-5.40570313 4.73878906 -4.68640625 3.91507812 -3.9453125 3.06640625 C-2 1 -2 1 0 0 Z " fill="#372D22" transform="translate(232,264)"/>
    <path d="M0 0 C3.59844449 1.51642877 5.85713143 3.64973442 8.5625 6.4375 C9.32691406 7.21996094 10.09132813 8.00242187 10.87890625 8.80859375 C11.57886719 9.53175781 12.27882813 10.25492188 13 11 C13.99780462 12.00219057 14.99680002 13.00321025 16 14 C13 14 13 14 11.3515625 12.64453125 C10.78179687 12.03996094 10.21203125 11.43539062 9.625 10.8125 C9.0165625 10.17570313 8.408125 9.53890625 7.78125 8.8828125 C7.1934375 8.26148438 6.605625 7.64015625 6 7 C5.04474366 6.05936493 4.0868512 5.12139041 3.125 4.1875 C1 2 1 2 0 0 Z " fill="#33281C" transform="translate(249,763)"/>
    <path d="M0 0 C0.84691406 0.33064453 0.84691406 0.33064453 1.7109375 0.66796875 C-0.03749368 1.79540541 -1.7878719 2.91982295 -3.5390625 4.04296875 C-4.51359375 4.66945312 -5.488125 5.2959375 -6.4921875 5.94140625 C-8.72427865 7.31931727 -10.91993672 8.55109517 -13.2890625 9.66796875 C-11.84369463 6.10117385 -10.09165304 4.48265976 -6.9140625 2.35546875 C-6.14320313 1.82308594 -5.37234375 1.29070312 -4.578125 0.7421875 C-2.2890625 -0.33203125 -2.2890625 -0.33203125 0 0 Z " fill="#372C21" transform="translate(316.2890625,191.33203125)"/>
    <path d="M0 0 C3.87511727 0.54984772 5.59576506 2.27555331 8.25 5.0625 C8.95640625 5.79597656 9.6628125 6.52945312 10.390625 7.28515625 C10.92171875 7.85105469 11.4528125 8.41695313 12 9 C11.34 9.66 10.68 10.32 10 11 C8.33035479 9.35718838 6.6643536 7.71067239 5 6.0625 C4.071875 5.14597656 3.14375 4.22945313 2.1875 3.28515625 C0 1 0 1 0 0 Z " fill="#372D21" transform="translate(451,346)"/>
    <path d="M0 0 C0.33 0 0.66 0 1 0 C1.27761216 1.89198719 1.52099115 3.78901666 1.75 5.6875 C1.88921875 6.74324219 2.0284375 7.79898437 2.171875 8.88671875 C1.95681704 12.78220036 0.65011051 14.23176441 -2 17 C-1.85848172 14.9163691 -1.71162064 12.83310062 -1.5625 10.75 C-1.48128906 9.58984375 -1.40007813 8.4296875 -1.31640625 7.234375 C-1.06752213 4.69022624 -0.71885058 2.44046752 0 0 Z " fill="#5FB31D" transform="translate(523,483)"/>
    <path d="M0 0 C0 3 0 3 -1 6 C-1.66 6 -2.32 6 -3 6 C-3.268125 6.7425 -3.53625 7.485 -3.8125 8.25 C-4.94229421 10.86636554 -6.20893202 12.80187111 -8 15 C-7.58104993 9.41399909 -5.3517184 5.37498445 -2 1 C-1.34 0.67 -0.68 0.34 0 0 Z " fill="#342A1E" transform="translate(201,306)"/>
    <path d="M0 0 C-1.29922995 3.89768986 -2.94675162 4.57247741 -6.375 6.75 C-7.35210937 7.38421875 -8.32921875 8.0184375 -9.3359375 8.671875 C-12 10 -12 10 -15 9 C-12.87885041 7.49428254 -10.75346385 5.99531321 -8.625 4.5 C-8.02171875 4.07074219 -7.4184375 3.64148438 -6.796875 3.19921875 C-2.2265625 0 -2.2265625 0 0 0 Z " fill="#352A1F" transform="translate(328,211)"/>
    <path d="M0 0 C0.33 0 0.66 0 1 0 C1.22577402 5.4185766 0.46670113 9.77487721 -1 15 C-1.66 15 -2.32 15 -3 15 C-2.35812082 9.86496656 -1.31727753 5.0056546 0 0 Z " fill="#352A20" transform="translate(869,589)"/>
    <path d="M0 0 C3.67033927 3.27708863 5.69281189 6.71522208 8 11 C7.01 11 6.02 11 5 11 C3.61328125 9.35546875 3.61328125 9.35546875 2.3125 7.1875 C1.87550781 6.47980469 1.43851563 5.77210938 0.98828125 5.04296875 C0 3 0 3 0 0 Z " fill="#35291E" transform="translate(800,313)"/>
    <path d="M0 0 C0.99 0.33 1.98 0.66 3 1 C-0.54039134 3.9156164 -4.1626772 6.50127818 -8 9 C-8 8.01 -8 7.02 -8 6 C-6.35546875 4.359375 -6.35546875 4.359375 -4.1875 2.75 C-3.47980469 2.20859375 -2.77210938 1.6671875 -2.04296875 1.109375 C-1.36878906 0.74328125 -0.69460938 0.3771875 0 0 Z " fill="#352A1F" transform="translate(281,215)"/>
    <path d="M0 0 C0.99 0 1.98 0 3 0 C3.33 0.99 3.66 1.98 4 3 C2.1875 5.6875 2.1875 5.6875 0 8 C-0.66 8 -1.32 8 -2 8 C-1.34 5.36 -0.68 2.72 0 0 Z " fill="#372C20" transform="translate(801,728)"/>
    <path d="M0 0 C3.78717347 1.48781815 5.77407001 3.61988409 8 7 C7.67 7.99 7.34 8.98 7 10 C5.83043409 8.52312468 4.66441854 7.04343707 3.5 5.5625 C2.8503125 4.73878906 2.200625 3.91507812 1.53125 3.06640625 C0 1 0 1 0 0 Z " fill="#342A1F" transform="translate(796,271)"/>
    <path d="M0 0 C-1.34882814 4.04648443 -3.34826069 4.95502599 -7 7 C-7.99 6.67 -8.98 6.34 -10 6 C-8.71283353 4.99421411 -7.42011342 3.99553202 -6.125 3 C-5.40570312 2.443125 -4.68640625 1.88625 -3.9453125 1.3125 C-2 0 -2 0 0 0 Z " fill="#372C22" transform="translate(728,804)"/>
    <path d="M0 0 C2.97 0.33 5.94 0.66 9 1 C5.00889681 2.9955516 3.30013434 3.19546065 -1 3 C-0.67 2.01 -0.34 1.02 0 0 Z " fill="#362B1F" transform="translate(311,300)"/>
    <path d="M0 0 C4.37859255 0.50522222 6.81651224 3.17827222 10 6 C9.01 6.495 9.01 6.495 8 7 C6.66382648 6.02471263 5.3311249 5.04466681 4 4.0625 C3.2575 3.51722656 2.515 2.97195312 1.75 2.41015625 C1.1725 1.94480469 0.595 1.47945312 0 1 C0 0.67 0 0.34 0 0 Z " fill="#362B1F" transform="translate(739,215)"/>
    <path d="M0 0 C0 3 0 3 -1.2421875 4.60546875 C-1.78101563 5.12753906 -2.31984375 5.64960937 -2.875 6.1875 C-3.40867187 6.71730469 -3.94234375 7.24710938 -4.4921875 7.79296875 C-6 9 -6 9 -8 9 C-6.90101298 5.70303895 -6.05402613 4.95329411 -3.4375 2.8125 C-2.79683594 2.28269531 -2.15617188 1.75289062 -1.49609375 1.20703125 C-0.75552734 0.60955078 -0.75552734 0.60955078 0 0 Z " fill="#352C21" transform="translate(755,752)"/>
    <path d="M0 0 C2.96404505 2.80804268 5.44499019 5.18315774 7 9 C6.01 9.495 6.01 9.495 5 10 C4.15801693 8.90241493 3.32669329 7.79664683 2.5 6.6875 C2.0359375 6.07261719 1.571875 5.45773437 1.09375 4.82421875 C0 3 0 3 0 0 Z " fill="#372C21" transform="translate(214,720)"/>
    <path d="M0 0 C3.25524265 3.02272532 5.61820737 6.25718301 8 10 C7.01 10 6.02 10 5 10 C3.61328125 8.3203125 3.61328125 8.3203125 2.3125 6.125 C1.87550781 5.40570312 1.43851563 4.68640625 0.98828125 3.9453125 C0 2 0 2 0 0 Z " fill="#352B1F" transform="translate(206,709)"/>
    <path d="M0 0 C0.66 0.33 1.32 0.66 2 1 C-0.57784846 3.64752004 -2.91648098 5.94432065 -6 8 C-4.73058503 4.08597051 -3.48832306 2.20927127 0 0 Z " fill="#32281C" transform="translate(560,353)"/>
    <path d="M0 0 C0.66 0.33 1.32 0.66 2 1 C0.02 3.31 -1.96 5.62 -4 8 C-4.33 6.68 -4.66 5.36 -5 4 C-3.35 2.68 -1.7 1.36 0 0 Z " fill="#372D22" transform="translate(259,234)"/>
    <path d="M0 0 C3.3 0 6.6 0 10 0 C10 0.66 10 1.32 10 2 C6.6875 2.6875 6.6875 2.6875 3 3 C2.01 2.01 1.02 1.02 0 0 Z " fill="#342A1E" transform="translate(566,141)"/>
    <path d="M0 0 C1.9375 0.6875 1.9375 0.6875 4 2 C4.875 4.5 4.875 4.5 5 7 C4.34 7.66 3.68 8.32 3 9 C2 6 1 3 0 0 Z " fill="#352C1F" transform="translate(718,295)"/>
    <path d="M0 0 C1.14926266 0.95421808 2.29430541 1.91352045 3.4375 2.875 C4.07558594 3.40867187 4.71367188 3.94234375 5.37109375 4.4921875 C7 6 7 6 8 8 C4.67689517 6.83242263 2.16638868 5.85051143 0 3 C0 2.01 0 1.02 0 0 Z " fill="#35291E" transform="translate(751,254)"/>
    <path d="M0 0 C-1.39332574 3.36720387 -2.9789286 4.9859524 -6 7 C-6.66 6.67 -7.32 6.34 -8 6 C-7.0479279 4.99403703 -6.08812654 3.99538437 -5.125 3 C-4.59132813 2.443125 -4.05765625 1.88625 -3.5078125 1.3125 C-2 0 -2 0 0 0 Z " fill="#362B1E" transform="translate(663,486)"/>
    <path d="M0 0 C0.99 0.33 1.98 0.66 3 1 C1.515 4.465 1.515 4.465 0 8 C-0.33 8 -0.66 8 -1 8 C-1.04241723 5.66705225 -1.04092937 3.33297433 -1 1 C-0.67 0.67 -0.34 0.34 0 0 Z " fill="#362D1F" transform="translate(506,453)"/>
    <path d="M0 0 C0.99 0.33 1.98 0.66 3 1 C2.34 1 1.68 1 1 1 C1 1.66 1 2.32 1 3 C-0.98 3.99 -2.96 4.98 -5 6 C-3.63016497 2.83884224 -3.0109362 2.0072908 0 0 Z " fill="#362B20" transform="translate(290,208)"/>
   
</svg>
